# xmcd
#
# Track frame offsets: 
#        150
#        21962
#        39287
#        44569
#        66128
#        83812
#        101790
#        114182
#        128128
#        141100
#        163603
#        185440
#        204293
#        214596
#        229138
#        239550
#        251231
#        276723
#        292724
#        309047
#        333280
#        348884
#
# Disc length: 4776 seconds
#
# Revision: 0
# Processed by: cddbd v1.5PL3 Copyright (c) Steve Scherf et al.
# Submitted via: ExactAudioCopy v0.95a5
#
DISCID=3c12a616
DTITLE=Mike Oldfield - Music History [CD1)
DYEAR=1900
DGENRE=Blues
TTITLE0=The Source Of Secrets
TTITLE1=Peace On Earth
TTITLE2=The Watchful Eve
TTITLE3=Let There Be Light
TTITLE4=Misty
TTITLE5=Pacha Mama
TTITLE6=Santa Maria
TTITLE7=The Doge's Palace
TTITLE8=Serpent Dream
TTITLE9=No Mans Lans
TTITLE10=Four Winds
TTITLE11=The Inner Child
TTITLE12=Prayer For The Earth
TTITLE13=Enigmatism
TTITLE14=Lament For Atlantis
TTITLE15=Liberation
TTITLE16=Jewel In The Crown
TTITLE17=Hibernaculum
TTITLE18=Turtle Island
TTITLE19=Sirius
TTITLE20=B. Blues
TTITLE21=Muse
EXTD=
EXTT0=
EXTT1=
EXTT2=
EXTT3=
EXTT4=
EXTT5=
EXTT6=
EXTT7=
EXTT8=
EXTT9=
EXTT10=
EXTT11=
EXTT12=
EXTT13=
EXTT14=
EXTT15=
EXTT16=
EXTT17=
EXTT18=
EXTT19=
EXTT20=
EXTT21=
PLAYORDER=
